<svg xmlns="http://www.w3.org/2000/svg" xmlns:xlink="http://www.w3.org/1999/xlink" width="448" height="532" viewBox="0 0 448 532">
  <defs>
    <linearGradient id="linear-gradient" y1="0.274" x2="0.959" y2="0.848" gradientUnits="objectBoundingBox">
      <stop offset="0" stop-color="#ffe76d"/>
      <stop offset="0.301" stop-color="#ffc757"/>
      <stop offset="1" stop-color="#ff5353"/>
    </linearGradient>
  </defs>
    <path d="M360.658,218.415c-.425-3.16-1.381-11.17-2.909-19.083a142.731,142.731,0,0,0-4.508-17.776c-.033-.088-.065-.177-.1-.265a33.039,33.039,0,0,0-2.666-5.57,21.627,21.627,0,0,0-5.6-6.255c-6.4-4.73-17.664-5.647-24.947-2.439-7.872,3.468-11.533,11.611-15.21,18.8-4.2,8.2-8.4,16.42-13.116,24.346a46.23,46.23,0,0,1-10.114,12.38,23.5,23.5,0,0,1-6.48,3.781c-9.427,3.536-16.072-1.411-23.34-7.1-7.73-6.054-14.579-13.151-22.511-18.963-4.762-3.491-11.182-7.553-17.333-7.583-11.245-.056-21.1,10.884-27.267,19.036-3.441,4.547-10.169,13.761-13.7,18.244a60.125,60.125,0,0,1-8.036,8.085,20.656,20.656,0,0,1-3.466,2.45,19.454,19.454,0,0,1-8.5,2.4c-5.763.323-10.3-1.9-15.336-4.656a47.31,47.31,0,0,1-5.083-3.235c-.209-.152-.416-.308-.622-.463a10.167,10.167,0,0,0-4.673-1.48c-3.881,0-8.29,5.171-8.29,9.032a6.922,6.922,0,0,0,.439,2.411c.018.05.043.1.063.143A6.972,6.972,0,0,0,119,247.119c10.732,15.852,25.984,27.383,40.678,27.623a26.621,26.621,0,0,0,11.219-2.15c11.408-5.031,19.963-15.948,29.487-23.57,4.113-3.293,8.39-5.533,13.723-5.791,4.209-.2,7.839,1.579,11.144,3.8a37.5,37.5,0,0,1,3.325,2.541c5.1,4.321,8.542,8.448,13.127,13.3A175.449,175.449,0,0,0,257.6,277.9c5.543,4.568,13.059,8.784,20.257,9.875.806.122,1.608.2,2.4.246a26.886,26.886,0,0,0,17.688-5.547,73.772,73.772,0,0,0,13.158-12.166,108.32,108.32,0,0,0,8.19-11.729c1.214-1.983,2.516-3.358,3.542-5.444.467-.95-.216,8.581-1.16,16.839a178.236,178.236,0,0,1-3.756,22.746q-1.082,4.467-2.372,8.88-2.055,7.028-4.629,13.893a33.664,33.664,0,0,1-1.278,3.312c-.019.044-.038.088-.051.125q-1.55,4.064-3.382,7.99c-19.856,42.711-62.21,72.186-112.619,72.186s-92.61-29.632-112.467-72.343q-1.857-3.979-3.428-8.115c-.025-.056-.044-.114-.07-.171a192.751,192.751,0,0,1,7.523-159.407c7.871-15.435,17.909-29.1,28.885-42.32,11.259-13.556,22.5-25.265,37.673-34.373.515-.313,1-.663,1.511-.985a73.627,73.627,0,0,1,80.739,0c.508.322,1.01.651,1.51.985,11.845,7.812,21.848,17.954,31.727,28.04a.282.282,0,0,0,.038.044c.311.309.616.625.914.941a20.888,20.888,0,0,0,5.218,3.732c7.973,4.048,19.713,2.911,26.386-3.727,7.77-7.73,9.2-21.225,2.407-29.523-.706-.89-1.422-1.774-2.14-2.652a142.662,142.662,0,0,0-12.757-13.481,248.554,248.554,0,0,0-34.06-25.8q-1.032-.642-2.075-1.26c-16.006-9.5-35.038-14.7-55.466-14.7a101.553,101.553,0,0,0-53.581,14.853c-.7.412-1.387.832-2.076,1.26C120.48,52.1,103.671,65.328,87.625,83.868c-.133.154-.279.3-.42.441C47.693,133.382,24,192.2,24,257.448a293.72,293.72,0,0,0,6.335,60.834c13.674,62.49,64.221,111.757,126.907,125.707a168,168,0,0,0,72.7,0c62.59-13.924,113.081-63.065,126.844-125.417.17-.771.33-1.534.488-2.3a1.706,1.706,0,0,0,.039-.19c.126-.606.248-1.212.368-1.825a280.138,280.138,0,0,0,5.041-39.488q.45-7.975.456-16.061A322.473,322.473,0,0,0,360.658,218.415Z" transform="translate(29.999 30)" fill-rule="evenodd" fill="url(#linear-gradient)"/>
</svg>